# xmcd
#
# Track frame offsets: 
#        150
#        24936
#        51023
#        69292
#        87485
#        110003
#        127286
#
# Disc length: 1879 seconds
#
# Revision: 1
# Processed by: cddbd v1.5.2PL0 Copyright (c) Steve Scherf et al.
# Submitted via: ExactAudioCopyFreeDBPlugin 1.0
#
DISCID=5c075507
DTITLE=Kenny Burrell - BlueNote13
DYEAR=2012
DGENRE=Jazz
TTITLE0=Chittlins Con Carne
TTITLE1=Autumn In New York
TTITLE2=Get Happy
TTITLE3=Midnight Blue
TTITLE4=This Time The Dream's On Me
TTITLE5=But Not For Me
TTITLE6=Loie
EXTD=
EXTT0=
EXTT1=
EXTT2=
EXTT3=
EXTT4=
EXTT5=
EXTT6=
PLAYORDER=
